<?xml version="1.0" encoding="UTF-8" standalone="no"?>
<!DOCTYPE svg PUBLIC "-//W3C//DTD SVG 1.1//EN"
 "http://www.w3.org/Graphics/SVG/1.1/DTD/svg11.dtd">
<!-- Generated by graphviz version 2.38.0 (20140413.2041)
 -->
<!-- Title: humane_society Pages: 1 -->
<svg width="818pt" height="822pt"
 viewBox="0.00 0.00 818.30 822.16" xmlns="http://www.w3.org/2000/svg" xmlns:xlink="http://www.w3.org/1999/xlink">
<g id="graph0" class="graph" transform="scale(1 1) rotate(0) translate(4 818.165)">
<title>humane_society</title>
<polygon fill="white" stroke="none" points="-4,4 -4,-818.165 814.296,-818.165 814.296,4 -4,4"/>
<!-- SHELTER -->
<g id="node1" class="node"><title>SHELTER</title>
<polygon fill="none" stroke="black" points="353.296,-299.165 277.296,-299.165 277.296,-263.165 353.296,-263.165 353.296,-299.165"/>
<text text-anchor="middle" x="315.296" y="-277.465" font-family="Times,serif" font-size="14.00">SHELTER</text>
</g>
<!-- SID -->
<g id="node2" class="node"><title>SID</title>
<ellipse fill="none" stroke="black" cx="120.296" cy="-190.082" rx="27" ry="18"/>
<text text-anchor="start" x="109.296" y="-187.382" font-family="Times,serif" text-decoration="underline" font-size="14.00">SID</text>
</g>
<!-- SHELTER&#45;&#45;SID -->
<g id="edge1" class="edge"><title>SHELTER&#45;&#45;SID</title>
<path fill="none" stroke="black" d="M277.099,-265.401C244.504,-252.432 196.643,-232.505 156.296,-212.165 150.734,-209.361 144.847,-206.061 139.48,-202.916"/>
</g>
<!-- Address -->
<g id="node3" class="node"><title>Address</title>
<ellipse fill="none" stroke="black" cx="205.296" cy="-190.082" rx="39.7935" ry="18"/>
<text text-anchor="middle" x="205.296" y="-186.382" font-family="Times,serif" font-size="14.00">Address</text>
</g>
<!-- SHELTER&#45;&#45;Address -->
<g id="edge2" class="edge"><title>SHELTER&#45;&#45;Address</title>
<path fill="none" stroke="black" d="M294.087,-262.989C273.735,-246.506 243.303,-221.862 223.879,-206.131"/>
</g>
<!-- DaysOpen -->
<g id="node9" class="node"><title>DaysOpen</title>
<ellipse fill="none" stroke="black" cx="315.296" cy="-190.082" rx="48.1843" ry="18"/>
<ellipse fill="none" stroke="black" cx="315.296" cy="-190.082" rx="52.1916" ry="22"/>
<text text-anchor="middle" x="315.296" y="-186.382" font-family="Times,serif" font-size="14.00">DaysOpen</text>
</g>
<!-- SHELTER&#45;&#45;DaysOpen -->
<g id="edge9" class="edge"><title>SHELTER&#45;&#45;DaysOpen</title>
<path fill="none" stroke="black" d="M315.296,-262.989C315.296,-248.529 315.296,-227.787 315.296,-212.293"/>
</g>
<!-- Phones -->
<g id="node10" class="node"><title>Phones</title>
<ellipse fill="none" stroke="black" cx="425.296" cy="-190.082" rx="36.304" ry="18"/>
<ellipse fill="none" stroke="black" cx="425.296" cy="-190.082" rx="40.2938" ry="22"/>
<text text-anchor="middle" x="425.296" y="-186.382" font-family="Times,serif" font-size="14.00">Phones</text>
</g>
<!-- SHELTER&#45;&#45;Phones -->
<g id="edge8" class="edge"><title>SHELTER&#45;&#45;Phones</title>
<path fill="none" stroke="black" d="M336.506,-262.989C355.734,-247.417 383.96,-224.558 403.4,-208.815"/>
</g>
<!-- HOUSED_AT -->
<g id="node28" class="node"><title>HOUSED_AT</title>
<polygon fill="none" stroke="black" points="592.296,-208.15 504.259,-190.082 592.296,-172.015 680.334,-190.082 592.296,-208.15"/>
<polygon fill="none" stroke="black" points="592.296,-212.247 484.293,-190.082 592.296,-167.917 700.3,-190.082 592.296,-212.247"/>
<text text-anchor="middle" x="592.296" y="-186.382" font-family="Times,serif" font-size="14.00">HOUSED_AT</text>
</g>
<!-- SHELTER&#45;&#45;HOUSED_AT -->
<g id="edge27" class="edge"><title>SHELTER&#45;&#45;HOUSED_AT</title>
<path fill="none" stroke="black" d="M353.521,-267.872C405.615,-251.119 498.501,-221.247 551.767,-204.116"/>
<text text-anchor="middle" x="474.796" y="-233.965" font-family="Times,serif" font-size="14.00">1</text>
</g>
<!-- Number -->
<g id="node4" class="node"><title>Number</title>
<ellipse fill="none" stroke="black" cx="40.2964" cy="-95" rx="40.0939" ry="18"/>
<text text-anchor="middle" x="40.2964" y="-91.3" font-family="Times,serif" font-size="14.00">Number</text>
</g>
<!-- Address&#45;&#45;Number -->
<g id="edge3" class="edge"><title>Address&#45;&#45;Number</title>
<path fill="none" stroke="black" d="M181.304,-175.547C150.021,-157.9 95.6149,-127.207 64.3178,-109.551"/>
</g>
<!-- Street -->
<g id="node5" class="node"><title>Street</title>
<ellipse fill="none" stroke="black" cx="129.296" cy="-95" rx="31.3957" ry="18"/>
<text text-anchor="middle" x="129.296" y="-91.3" font-family="Times,serif" font-size="14.00">Street</text>
</g>
<!-- Address&#45;&#45;Street -->
<g id="edge4" class="edge"><title>Address&#45;&#45;Street</title>
<path fill="none" stroke="black" d="M192.058,-172.869C178.024,-155.68 156.008,-128.716 142.13,-111.718"/>
</g>
<!-- City -->
<g id="node6" class="node"><title>City</title>
<ellipse fill="none" stroke="black" cx="205.296" cy="-95" rx="27" ry="18"/>
<text text-anchor="middle" x="205.296" y="-91.3" font-family="Times,serif" font-size="14.00">City</text>
</g>
<!-- Address&#45;&#45;City -->
<g id="edge5" class="edge"><title>Address&#45;&#45;City</title>
<path fill="none" stroke="black" d="M205.296,-172.01C205.296,-155.32 205.296,-130.04 205.296,-113.28"/>
</g>
<!-- State -->
<g id="node7" class="node"><title>State</title>
<ellipse fill="none" stroke="black" cx="279.296" cy="-95" rx="28.6953" ry="18"/>
<text text-anchor="middle" x="279.296" y="-91.3" font-family="Times,serif" font-size="14.00">State</text>
</g>
<!-- Address&#45;&#45;State -->
<g id="edge6" class="edge"><title>Address&#45;&#45;State</title>
<path fill="none" stroke="black" d="M218.186,-172.869C231.934,-155.576 253.548,-128.388 267.046,-111.41"/>
</g>
<!-- Zip -->
<g id="node8" class="node"><title>Zip</title>
<ellipse fill="none" stroke="black" cx="353.296" cy="-95" rx="27" ry="18"/>
<text text-anchor="middle" x="353.296" y="-91.3" font-family="Times,serif" font-size="14.00">Zip</text>
</g>
<!-- Address&#45;&#45;Zip -->
<g id="edge7" class="edge"><title>Address&#45;&#45;Zip</title>
<path fill="none" stroke="black" d="M227.454,-175.147C256.483,-156.889 306.905,-125.177 334.284,-107.958"/>
</g>
<!-- WORKER -->
<g id="node11" class="node"><title>WORKER</title>
<polygon fill="none" stroke="black" points="308.296,-741.165 232.296,-741.165 232.296,-705.165 308.296,-705.165 308.296,-741.165"/>
<text text-anchor="middle" x="270.296" y="-719.465" font-family="Times,serif" font-size="14.00">WORKER</text>
</g>
<!-- sub_worker -->
<g id="node19" class="node"><title>sub_worker</title>
<ellipse fill="none" stroke="black" cx="241.296" cy="-636.165" rx="18" ry="18"/>
<text text-anchor="middle" x="241.296" y="-632.465" font-family="Times,serif" font-size="14.00">d</text>
</g>
<!-- WORKER&#45;&#45;sub_worker -->
<g id="edge14" class="edge"><title>WORKER&#45;&#45;sub_worker</title>
<path fill="none" stroke="black" d="M262.535,-705.61C257.404,-690.571 250.007,-668.889 244.968,-654.121"/>
<path fill="none" stroke="none" d="M264.428,-704.964C259.297,-689.926 251.9,-668.243 246.861,-653.475"/>
<path fill="none" stroke="black" d="M266.321,-704.318C261.19,-689.28 253.792,-667.597 248.754,-652.829"/>
</g>
<!-- WORKS_FOR -->
<g id="node20" class="node"><title>WORKS_FOR</title>
<polygon fill="none" stroke="black" points="347.296,-600.165 256.303,-582.165 347.296,-564.165 438.29,-582.165 347.296,-600.165"/>
<text text-anchor="middle" x="347.296" y="-578.465" font-family="Times,serif" font-size="14.00">WORKS_FOR</text>
</g>
<!-- WORKER&#45;&#45;WORKS_FOR -->
<g id="edge19" class="edge"><title>WORKER&#45;&#45;WORKS_FOR</title>
<path fill="none" stroke="black" d="M277.989,-704.151C293.088,-676.894 322.445,-623.899 336.975,-597.669"/>
<path fill="none" stroke="none" d="M279.738,-705.121C294.838,-677.863 324.194,-624.868 338.725,-598.638"/>
<path fill="none" stroke="black" d="M281.488,-706.09C296.587,-678.832 325.944,-625.837 340.474,-599.607"/>
<text text-anchor="middle" x="303.296" y="-675.965" font-family="Times,serif" font-size="14.00">N</text>
</g>
<!-- SSN -->
<g id="node12" class="node"><title>SSN</title>
<ellipse fill="none" stroke="black" cx="193.296" cy="-796.165" rx="27" ry="18"/>
<text text-anchor="start" x="180.796" y="-793.465" font-family="Times,serif" text-decoration="underline" font-size="14.00">SSN</text>
</g>
<!-- SSN&#45;&#45;WORKER -->
<g id="edge10" class="edge"><title>SSN&#45;&#45;WORKER</title>
<path fill="none" stroke="black" d="M208.509,-781.137C220.956,-769.66 238.606,-753.386 251.856,-741.168"/>
</g>
<!-- Name -->
<g id="node13" class="node"><title>Name</title>
<ellipse fill="none" stroke="black" cx="270.296" cy="-796.165" rx="32.4942" ry="18"/>
<text text-anchor="middle" x="270.296" y="-792.465" font-family="Times,serif" font-size="14.00">Name</text>
</g>
<!-- Name&#45;&#45;WORKER -->
<g id="edge11" class="edge"><title>Name&#45;&#45;WORKER</title>
<path fill="none" stroke="black" d="M270.296,-777.978C270.296,-766.815 270.296,-752.325 270.296,-741.194"/>
</g>
<!-- Phone -->
<g id="node14" class="node"><title>Phone</title>
<ellipse fill="none" stroke="black" cx="353.296" cy="-796.165" rx="32.4942" ry="18"/>
<text text-anchor="middle" x="353.296" y="-792.465" font-family="Times,serif" font-size="14.00">Phone</text>
</g>
<!-- Phone&#45;&#45;WORKER -->
<g id="edge12" class="edge"><title>Phone&#45;&#45;WORKER</title>
<path fill="none" stroke="black" d="M336.099,-780.454C322.804,-769.081 304.37,-753.312 290.395,-741.358"/>
</g>
<!-- VOLUNTEER -->
<g id="node15" class="node"><title>VOLUNTEER</title>
<polygon fill="none" stroke="black" points="180.296,-546.165 82.2964,-546.165 82.2964,-510.165 180.296,-510.165 180.296,-546.165"/>
<text text-anchor="middle" x="131.296" y="-524.465" font-family="Times,serif" font-size="14.00">VOLUNTEER</text>
</g>
<!-- EMPLOYEE -->
<g id="node16" class="node"><title>EMPLOYEE</title>
<polygon fill="none" stroke="black" points="286.796,-546.165 197.796,-546.165 197.796,-510.165 286.796,-510.165 286.796,-546.165"/>
<text text-anchor="middle" x="242.296" y="-524.465" font-family="Times,serif" font-size="14.00">EMPLOYEE</text>
</g>
<!-- PayRate -->
<g id="node17" class="node"><title>PayRate</title>
<ellipse fill="none" stroke="black" cx="141.296" cy="-455.165" rx="40.0939" ry="18"/>
<text text-anchor="middle" x="141.296" y="-451.465" font-family="Times,serif" font-size="14.00">PayRate</text>
</g>
<!-- EMPLOYEE&#45;&#45;PayRate -->
<g id="edge13" class="edge"><title>EMPLOYEE&#45;&#45;PayRate</title>
<path fill="none" stroke="black" d="M218.104,-510.158C201.063,-498.179 178.478,-482.302 162.214,-470.869"/>
</g>
<!-- MANAGER -->
<g id="node18" class="node"><title>MANAGER</title>
<polygon fill="none" stroke="black" points="285.296,-473.165 199.296,-473.165 199.296,-437.165 285.296,-437.165 285.296,-473.165"/>
<text text-anchor="middle" x="242.296" y="-451.465" font-family="Times,serif" font-size="14.00">MANAGER</text>
</g>
<!-- EMPLOYEE&#45;&#45;MANAGER -->
<g id="edge17" class="edge"><title>EMPLOYEE&#45;&#45;MANAGER</title>
<path fill="none" stroke="black" d="M242.296,-499.918C242.296,-490.93 242.296,-481.194 242.296,-473.194"/>
<polygon fill="black" stroke="black" points="238.797,-499.978 242.296,-509.978 245.797,-499.978 238.797,-499.978"/>
</g>
<!-- MANAGES -->
<g id="node21" class="node"><title>MANAGES</title>
<polygon fill="none" stroke="black" points="242.296,-386.165 164.877,-368.165 242.296,-350.165 319.715,-368.165 242.296,-386.165"/>
<text text-anchor="middle" x="242.296" y="-364.465" font-family="Times,serif" font-size="14.00">MANAGES</text>
</g>
<!-- MANAGER&#45;&#45;MANAGES -->
<g id="edge20" class="edge"><title>MANAGER&#45;&#45;MANAGES</title>
<path fill="none" stroke="black" d="M240.296,-436.964C240.296,-422.217 240.296,-401.08 240.296,-386.34"/>
<path fill="none" stroke="none" d="M242.296,-436.964C242.296,-422.217 242.296,-401.08 242.296,-386.34"/>
<path fill="none" stroke="black" d="M244.296,-436.964C244.296,-422.217 244.296,-401.08 244.296,-386.34"/>
<text text-anchor="middle" x="245.796" y="-407.965" font-family="Times,serif" font-size="14.00">1</text>
</g>
<!-- sub_worker&#45;&#45;VOLUNTEER -->
<g id="edge15" class="edge"><title>sub_worker&#45;&#45;VOLUNTEER</title>
<path fill="none" stroke="black" d="M221.395,-615.987C200.828,-596.168 169.015,-565.511 149.211,-546.428"/>
<polygon fill="black" stroke="black" points="219.049,-618.587 228.678,-623.005 223.906,-613.546 219.049,-618.587"/>
</g>
<!-- sub_worker&#45;&#45;EMPLOYEE -->
<g id="edge16" class="edge"><title>sub_worker&#45;&#45;EMPLOYEE</title>
<path fill="none" stroke="black" d="M241.552,-608.096C241.735,-588.719 241.975,-563.207 242.133,-546.505"/>
<polygon fill="black" stroke="black" points="238.052,-608.101 241.457,-618.134 245.051,-608.168 238.052,-608.101"/>
</g>
<!-- WORKS_FOR&#45;&#45;SHELTER -->
<g id="edge18" class="edge"><title>WORKS_FOR&#45;&#45;SHELTER</title>
<path fill="none" stroke="black" d="M345.296,-564.103C345.296,-546.187 345.296,-517.196 345.296,-492.165 345.296,-492.165 345.296,-492.165 345.296,-367.165 345.477,-343.24 333.441,-316.879 324.205,-300.336"/>
<path fill="none" stroke="none" d="M347.296,-564.103C347.296,-546.187 347.296,-517.196 347.296,-492.165 347.296,-492.165 347.296,-492.165 347.296,-367.165 347.296,-342.409 335.261,-316.048 325.952,-299.362"/>
<path fill="none" stroke="black" d="M349.296,-564.103C349.296,-546.187 349.296,-517.196 349.296,-492.165 349.296,-492.165 349.296,-492.165 349.296,-367.165 349.116,-341.578 337.08,-315.217 327.699,-298.387"/>
<text text-anchor="middle" x="350.796" y="-451.465" font-family="Times,serif" font-size="14.00">1</text>
</g>
<!-- MANAGES&#45;&#45;SHELTER -->
<g id="edge21" class="edge"><title>MANAGES&#45;&#45;SHELTER</title>
<path fill="none" stroke="black" d="M253.163,-351.443C265.854,-336.665 285.587,-313.688 299.067,-297.992"/>
<path fill="none" stroke="none" d="M254.68,-352.746C267.371,-337.968 287.104,-314.991 300.584,-299.295"/>
<path fill="none" stroke="black" d="M256.197,-354.049C268.889,-339.271 288.622,-316.294 302.101,-300.599"/>
<text text-anchor="middle" x="289.796" y="-320.965" font-family="Times,serif" font-size="14.00">1</text>
</g>
<!-- PET -->
<g id="node22" class="node"><title>PET</title>
<polygon fill="none" stroke="black" points="619.296,-113 565.296,-113 565.296,-77 619.296,-77 619.296,-113"/>
<polygon fill="none" stroke="black" points="623.296,-117 561.296,-117 561.296,-73 623.296,-73 623.296,-117"/>
<text text-anchor="middle" x="592.296" y="-91.3" font-family="Times,serif" font-size="14.00">PET</text>
</g>
<!-- PID -->
<g id="node23" class="node"><title>PID</title>
<ellipse fill="none" stroke="black" cx="427.296" cy="-18" rx="27" ry="18"/>
<text text-anchor="start" x="416.296" y="-15.3" font-family="Times,serif" text-decoration="underline" font-size="14.00">PID</text>
</g>
<!-- PET&#45;&#45;PID -->
<g id="edge22" class="edge"><title>PET&#45;&#45;PID</title>
<path fill="none" stroke="black" d="M561.205,-80.2157C535.03,-68.5646 496.636,-51.3653 463.296,-36 458.526,-33.8013 453.415,-31.4098 448.586,-29.1338"/>
</g>
<!-- PetName -->
<g id="node24" class="node"><title>PetName</title>
<ellipse fill="none" stroke="black" cx="504.296" cy="-18" rx="32.4942" ry="18"/>
<text text-anchor="middle" x="504.296" y="-14.3" font-family="Times,serif" font-size="14.00">Name</text>
</g>
<!-- PET&#45;&#45;PetName -->
<g id="edge23" class="edge"><title>PET&#45;&#45;PetName</title>
<path fill="none" stroke="black" d="M567.315,-72.7086C552.579,-60.1495 534.318,-44.587 521.254,-33.4524"/>
</g>
<!-- Species -->
<g id="node25" class="node"><title>Species</title>
<ellipse fill="none" stroke="black" cx="592.296" cy="-18" rx="37.8943" ry="18"/>
<text text-anchor="middle" x="592.296" y="-14.3" font-family="Times,serif" font-size="14.00">Species</text>
</g>
<!-- PET&#45;&#45;Species -->
<g id="edge24" class="edge"><title>PET&#45;&#45;Species</title>
<path fill="none" stroke="black" d="M592.296,-72.7086C592.296,-61.1023 592.296,-46.9309 592.296,-36.0597"/>
</g>
<!-- BirthDate -->
<g id="node26" class="node"><title>BirthDate</title>
<ellipse fill="none" stroke="black" cx="693.296" cy="-18" rx="45.4919" ry="18"/>
<text text-anchor="middle" x="693.296" y="-14.3" font-family="Times,serif" font-size="14.00">BirthDate</text>
</g>
<!-- PET&#45;&#45;BirthDate -->
<g id="edge25" class="edge"><title>PET&#45;&#45;BirthDate</title>
<path fill="none" stroke="black" d="M620.699,-72.9087C637.27,-60.604 657.794,-45.3633 672.787,-34.2296"/>
</g>
<!-- Age -->
<g id="node27" class="node"><title>Age</title>
<ellipse fill="none" stroke="black" stroke-dasharray="1,5" cx="783.296" cy="-18" rx="27" ry="18"/>
<text text-anchor="middle" x="783.296" y="-14.3" font-family="Times,serif" font-size="14.00">Age</text>
</g>
<!-- PET&#45;&#45;Age -->
<g id="edge26" class="edge"><title>PET&#45;&#45;Age</title>
<path fill="none" stroke="black" stroke-dasharray="1,5" d="M623.473,-83.1941C654.988,-72.0707 704.947,-53.886 747.296,-36 752.136,-33.9562 757.274,-31.6277 762.108,-29.3635"/>
</g>
<!-- HOUSED_AT&#45;&#45;PET -->
<g id="edge28" class="edge"><title>HOUSED_AT&#45;&#45;PET</title>
<path fill="none" stroke="black" d="M590.296,-167.961C590.296,-152.727 590.296,-132.253 590.296,-117.038"/>
<path fill="none" stroke="none" d="M592.296,-167.961C592.296,-152.727 592.296,-132.253 592.296,-117.038"/>
<path fill="none" stroke="black" d="M594.296,-167.961C594.296,-152.727 594.296,-132.253 594.296,-117.038"/>
<text text-anchor="middle" x="597.296" y="-138.8" font-family="Times,serif" font-size="14.00">N</text>
</g>
</g>
</svg>
