<?xml version="1.0" encoding="UTF-8" standalone="no"?>
<!DOCTYPE svg PUBLIC "-//W3C//DTD SVG 1.1//EN"
 "http://www.w3.org/Graphics/SVG/1.1/DTD/svg11.dtd">
<!-- Generated by graphviz version 2.38.0 (20140413.2041)
 -->
<!-- Title: pet_shelter Pages: 1 -->
<svg width="739pt" height="481pt"
 viewBox="0.00 0.00 738.70 481.16" xmlns="http://www.w3.org/2000/svg" xmlns:xlink="http://www.w3.org/1999/xlink">
<g id="graph0" class="graph" transform="scale(1 1) rotate(0) translate(4 477.165)">
<title>pet_shelter</title>
<polygon fill="white" stroke="none" points="-4,4 -4,-477.165 734.697,-477.165 734.697,4 -4,4"/>
<!-- PET_SHELTER -->
<g id="node1" class="node"><title>PET_SHELTER</title>
<polygon fill="none" stroke="black" points="381.5,-299.165 274.5,-299.165 274.5,-263.165 381.5,-263.165 381.5,-299.165"/>
<text text-anchor="middle" x="328" y="-277.465" font-family="Times,serif" font-size="14.00">PET_SHELTER</text>
</g>
<!-- SID -->
<g id="node2" class="node"><title>SID</title>
<ellipse fill="none" stroke="black" cx="133" cy="-190.082" rx="27" ry="18"/>
<text text-anchor="start" x="122" y="-187.382" font-family="Times,serif" text-decoration="underline" font-size="14.00">SID</text>
</g>
<!-- PET_SHELTER&#45;&#45;SID -->
<g id="edge1" class="edge"><title>PET_SHELTER&#45;&#45;SID</title>
<path fill="none" stroke="black" d="M284.138,-263.138C251.825,-250.18 207.068,-231.357 169,-212.165 163.438,-209.361 157.55,-206.061 152.183,-202.916"/>
</g>
<!-- Address -->
<g id="node3" class="node"><title>Address</title>
<ellipse fill="none" stroke="black" cx="218" cy="-190.082" rx="39.7935" ry="18"/>
<text text-anchor="middle" x="218" y="-186.382" font-family="Times,serif" font-size="14.00">Address</text>
</g>
<!-- PET_SHELTER&#45;&#45;Address -->
<g id="edge2" class="edge"><title>PET_SHELTER&#45;&#45;Address</title>
<path fill="none" stroke="black" d="M306.791,-262.989C286.438,-246.506 256.007,-221.862 236.582,-206.131"/>
</g>
<!-- DaysOpen -->
<g id="node9" class="node"><title>DaysOpen</title>
<ellipse fill="none" stroke="black" cx="328" cy="-190.082" rx="48.1843" ry="18"/>
<ellipse fill="none" stroke="black" cx="328" cy="-190.082" rx="52.1916" ry="22"/>
<text text-anchor="middle" x="328" y="-186.382" font-family="Times,serif" font-size="14.00">DaysOpen</text>
</g>
<!-- PET_SHELTER&#45;&#45;DaysOpen -->
<g id="edge9" class="edge"><title>PET_SHELTER&#45;&#45;DaysOpen</title>
<path fill="none" stroke="black" d="M328,-262.989C328,-248.529 328,-227.787 328,-212.293"/>
</g>
<!-- Phones -->
<g id="node10" class="node"><title>Phones</title>
<ellipse fill="none" stroke="black" cx="438" cy="-190.082" rx="36.304" ry="18"/>
<ellipse fill="none" stroke="black" cx="438" cy="-190.082" rx="40.2938" ry="22"/>
<text text-anchor="middle" x="438" y="-186.382" font-family="Times,serif" font-size="14.00">Phones</text>
</g>
<!-- PET_SHELTER&#45;&#45;Phones -->
<g id="edge8" class="edge"><title>PET_SHELTER&#45;&#45;Phones</title>
<path fill="none" stroke="black" d="M349.209,-262.989C368.438,-247.417 396.663,-224.558 416.103,-208.815"/>
</g>
<!-- HOUSED_AT -->
<g id="node20" class="node"><title>HOUSED_AT</title>
<polygon fill="none" stroke="black" points="605,-208.15 516.963,-190.082 605,-172.015 693.037,-190.082 605,-208.15"/>
<polygon fill="none" stroke="black" points="605,-212.247 496.996,-190.082 605,-167.917 713.004,-190.082 605,-212.247"/>
<text text-anchor="middle" x="605" y="-186.382" font-family="Times,serif" font-size="14.00">HOUSED_AT</text>
</g>
<!-- PET_SHELTER&#45;&#45;HOUSED_AT -->
<g id="edge18" class="edge"><title>PET_SHELTER&#45;&#45;HOUSED_AT</title>
<path fill="none" stroke="black" d="M381.081,-263.094C434.649,-245.867 516.188,-219.644 564.678,-204.05"/>
<text text-anchor="middle" x="487.5" y="-233.965" font-family="Times,serif" font-size="14.00">1</text>
</g>
<!-- Number -->
<g id="node4" class="node"><title>Number</title>
<ellipse fill="none" stroke="black" cx="53" cy="-95" rx="40.0939" ry="18"/>
<text text-anchor="middle" x="53" y="-91.3" font-family="Times,serif" font-size="14.00">Number</text>
</g>
<!-- Address&#45;&#45;Number -->
<g id="edge3" class="edge"><title>Address&#45;&#45;Number</title>
<path fill="none" stroke="black" d="M194.008,-175.547C162.725,-157.9 108.318,-127.207 77.0214,-109.551"/>
</g>
<!-- Street -->
<g id="node5" class="node"><title>Street</title>
<ellipse fill="none" stroke="black" cx="142" cy="-95" rx="31.3957" ry="18"/>
<text text-anchor="middle" x="142" y="-91.3" font-family="Times,serif" font-size="14.00">Street</text>
</g>
<!-- Address&#45;&#45;Street -->
<g id="edge4" class="edge"><title>Address&#45;&#45;Street</title>
<path fill="none" stroke="black" d="M204.762,-172.869C190.727,-155.68 168.712,-128.716 154.833,-111.718"/>
</g>
<!-- City -->
<g id="node6" class="node"><title>City</title>
<ellipse fill="none" stroke="black" cx="218" cy="-95" rx="27" ry="18"/>
<text text-anchor="middle" x="218" y="-91.3" font-family="Times,serif" font-size="14.00">City</text>
</g>
<!-- Address&#45;&#45;City -->
<g id="edge5" class="edge"><title>Address&#45;&#45;City</title>
<path fill="none" stroke="black" d="M218,-172.01C218,-155.32 218,-130.04 218,-113.28"/>
</g>
<!-- State -->
<g id="node7" class="node"><title>State</title>
<ellipse fill="none" stroke="black" cx="292" cy="-95" rx="28.6953" ry="18"/>
<text text-anchor="middle" x="292" y="-91.3" font-family="Times,serif" font-size="14.00">State</text>
</g>
<!-- Address&#45;&#45;State -->
<g id="edge6" class="edge"><title>Address&#45;&#45;State</title>
<path fill="none" stroke="black" d="M230.89,-172.869C244.638,-155.576 266.251,-128.388 279.749,-111.41"/>
</g>
<!-- Zip -->
<g id="node8" class="node"><title>Zip</title>
<ellipse fill="none" stroke="black" cx="366" cy="-95" rx="27" ry="18"/>
<text text-anchor="middle" x="366" y="-91.3" font-family="Times,serif" font-size="14.00">Zip</text>
</g>
<!-- Address&#45;&#45;Zip -->
<g id="edge7" class="edge"><title>Address&#45;&#45;Zip</title>
<path fill="none" stroke="black" d="M240.157,-175.147C269.187,-156.889 319.608,-125.177 346.988,-107.958"/>
</g>
<!-- WORKER -->
<g id="node11" class="node"><title>WORKER</title>
<polygon fill="none" stroke="black" points="183,-473.165 107,-473.165 107,-437.165 183,-437.165 183,-473.165"/>
<text text-anchor="middle" x="145" y="-451.465" font-family="Times,serif" font-size="14.00">WORKER</text>
</g>
<!-- SSN -->
<g id="node12" class="node"><title>SSN</title>
<ellipse fill="none" stroke="black" cx="27" cy="-368.165" rx="27" ry="18"/>
<text text-anchor="start" x="14.5" y="-365.465" font-family="Times,serif" text-decoration="underline" font-size="14.00">SSN</text>
</g>
<!-- WORKER&#45;&#45;SSN -->
<g id="edge10" class="edge"><title>WORKER&#45;&#45;SSN</title>
<path fill="none" stroke="black" d="M121.121,-436.964C98.4935,-420.664 65.0301,-396.559 44.6977,-381.913"/>
</g>
<!-- Name -->
<g id="node13" class="node"><title>Name</title>
<ellipse fill="none" stroke="black" cx="104" cy="-368.165" rx="32.4942" ry="18"/>
<text text-anchor="middle" x="104" y="-364.465" font-family="Times,serif" font-size="14.00">Name</text>
</g>
<!-- WORKER&#45;&#45;Name -->
<g id="edge11" class="edge"><title>WORKER&#45;&#45;Name</title>
<path fill="none" stroke="black" d="M136.703,-436.964C129.496,-422.023 119.126,-400.523 112.006,-385.762"/>
</g>
<!-- Phone -->
<g id="node14" class="node"><title>Phone</title>
<ellipse fill="none" stroke="black" cx="187" cy="-368.165" rx="32.4942" ry="18"/>
<text text-anchor="middle" x="187" y="-364.465" font-family="Times,serif" font-size="14.00">Phone</text>
</g>
<!-- WORKER&#45;&#45;Phone -->
<g id="edge12" class="edge"><title>WORKER&#45;&#45;Phone</title>
<path fill="none" stroke="black" d="M153.499,-436.964C160.882,-422.023 171.506,-400.523 178.799,-385.762"/>
</g>
<!-- WORKS_FOR -->
<g id="node19" class="node"><title>WORKS_FOR</title>
<polygon fill="none" stroke="black" points="328,-386.165 237.007,-368.165 328,-350.165 418.993,-368.165 328,-386.165"/>
<text text-anchor="middle" x="328" y="-364.465" font-family="Times,serif" font-size="14.00">WORKS_FOR</text>
</g>
<!-- WORKER&#45;&#45;WORKS_FOR -->
<g id="edge17" class="edge"><title>WORKER&#45;&#45;WORKS_FOR</title>
<path fill="none" stroke="black" d="M181.19,-435.15C216.909,-418.559 270.037,-393.882 301.381,-379.324"/>
<path fill="none" stroke="none" d="M182.033,-436.964C217.751,-420.373 270.88,-395.696 302.223,-381.138"/>
<path fill="none" stroke="black" d="M182.875,-438.778C218.594,-422.187 271.723,-397.51 303.066,-382.952"/>
<text text-anchor="middle" x="258" y="-407.965" font-family="Times,serif" font-size="14.00">N</text>
</g>
<!-- PET -->
<g id="node15" class="node"><title>PET</title>
<polygon fill="none" stroke="black" points="632,-113 578,-113 578,-77 632,-77 632,-113"/>
<polygon fill="none" stroke="black" points="636,-117 574,-117 574,-73 636,-73 636,-117"/>
<text text-anchor="middle" x="605" y="-91.3" font-family="Times,serif" font-size="14.00">PET</text>
</g>
<!-- PID -->
<g id="node16" class="node"><title>PID</title>
<ellipse fill="none" stroke="black" cx="528" cy="-18" rx="27" ry="18"/>
<text text-anchor="start" x="517" y="-15.3" font-family="Times,serif" text-decoration="underline" font-size="14.00">PID</text>
</g>
<!-- PET&#45;&#45;PID -->
<g id="edge13" class="edge"><title>PET&#45;&#45;PID</title>
<path fill="none" stroke="black" d="M583.141,-72.7086C570.158,-60.0629 554.049,-44.3722 542.602,-33.2227"/>
</g>
<!-- PetName -->
<g id="node17" class="node"><title>PetName</title>
<ellipse fill="none" stroke="black" cx="605" cy="-18" rx="32.4942" ry="18"/>
<text text-anchor="middle" x="605" y="-14.3" font-family="Times,serif" font-size="14.00">Name</text>
</g>
<!-- PET&#45;&#45;PetName -->
<g id="edge14" class="edge"><title>PET&#45;&#45;PetName</title>
<path fill="none" stroke="black" d="M605,-72.7086C605,-61.1023 605,-46.9309 605,-36.0597"/>
</g>
<!-- Species -->
<g id="node18" class="node"><title>Species</title>
<ellipse fill="none" stroke="black" cx="693" cy="-18" rx="37.8943" ry="18"/>
<text text-anchor="middle" x="693" y="-14.3" font-family="Times,serif" font-size="14.00">Species</text>
</g>
<!-- PET&#45;&#45;Species -->
<g id="edge15" class="edge"><title>PET&#45;&#45;Species</title>
<path fill="none" stroke="black" d="M629.982,-72.7086C644.413,-60.4094 662.224,-45.2296 675.225,-34.1492"/>
</g>
<!-- WORKS_FOR&#45;&#45;PET_SHELTER -->
<g id="edge16" class="edge"><title>WORKS_FOR&#45;&#45;PET_SHELTER</title>
<path fill="none" stroke="black" d="M326,-349.964C326,-335.217 326,-314.08 326,-299.34"/>
<path fill="none" stroke="none" d="M328,-349.964C328,-335.217 328,-314.08 328,-299.34"/>
<path fill="none" stroke="black" d="M330,-349.964C330,-335.217 330,-314.08 330,-299.34"/>
<text text-anchor="middle" x="331.5" y="-320.965" font-family="Times,serif" font-size="14.00">1</text>
</g>
<!-- HOUSED_AT&#45;&#45;PET -->
<g id="edge19" class="edge"><title>HOUSED_AT&#45;&#45;PET</title>
<path fill="none" stroke="black" d="M603,-167.961C603,-152.727 603,-132.253 603,-117.038"/>
<path fill="none" stroke="none" d="M605,-167.961C605,-152.727 605,-132.253 605,-117.038"/>
<path fill="none" stroke="black" d="M607,-167.961C607,-152.727 607,-132.253 607,-117.038"/>
<text text-anchor="middle" x="610" y="-138.8" font-family="Times,serif" font-size="14.00">N</text>
</g>
</g>
</svg>
