<?xml version="1.0" encoding="UTF-8" standalone="no"?>
<!DOCTYPE svg PUBLIC "-//W3C//DTD SVG 1.1//EN"
 "http://www.w3.org/Graphics/SVG/1.1/DTD/svg11.dtd">
<!-- Generated by graphviz version 2.38.0 (20140413.2041)
 -->
<!-- Title: pet Pages: 1 -->
<svg width="414pt" height="124pt"
 viewBox="0.00 0.00 414.00 124.00" xmlns="http://www.w3.org/2000/svg" xmlns:xlink="http://www.w3.org/1999/xlink">
<g id="graph0" class="graph" transform="scale(1 1) rotate(0) translate(4 120)">
<title>pet</title>
<polygon fill="white" stroke="none" points="-4,4 -4,-120 410,-120 410,4 -4,4"/>
<!-- PET -->
<g id="node1" class="node"><title>PET</title>
<polygon fill="none" stroke="black" points="216,-112 162,-112 162,-76 216,-76 216,-112"/>
<polygon fill="none" stroke="black" points="220,-116 158,-116 158,-72 220,-72 220,-116"/>
<text text-anchor="middle" x="189" y="-89.8" font-family="Times,serif" font-size="14.00">PET</text>
</g>
<!-- PID -->
<g id="node2" class="node"><title>PID</title>
<ellipse fill="none" stroke="black" cx="27" cy="-18" rx="27" ry="18"/>
<text text-anchor="start" x="15.7207" y="-14.8" font-family="Times,serif" text-decoration="underline" font-size="14.00">PID</text>
</g>
<!-- PET&#45;&#45;PID -->
<g id="edge1" class="edge"><title>PET&#45;&#45;PID</title>
<path fill="none" stroke="black" d="M157.867,-79.0863C132.327,-67.6313 95.2542,-50.91 63,-36 58.2318,-33.7958 53.1219,-31.4021 48.2934,-29.1256"/>
</g>
<!-- PetName -->
<g id="node3" class="node"><title>PetName</title>
<ellipse fill="none" stroke="black" cx="103" cy="-18" rx="31.4462" ry="18"/>
<text text-anchor="middle" x="103" y="-13.8" font-family="Times,serif" font-size="14.00">Name</text>
</g>
<!-- PET&#45;&#45;PetName -->
<g id="edge2" class="edge"><title>PET&#45;&#45;PetName</title>
<path fill="none" stroke="black" d="M164.586,-71.9925C150.185,-59.6009 132.34,-44.2458 119.572,-33.2597"/>
</g>
<!-- Species -->
<g id="node4" class="node"><title>Species</title>
<ellipse fill="none" stroke="black" cx="189" cy="-18" rx="37.2421" ry="18"/>
<text text-anchor="middle" x="189" y="-13.8" font-family="Times,serif" font-size="14.00">Species</text>
</g>
<!-- PET&#45;&#45;Species -->
<g id="edge3" class="edge"><title>PET&#45;&#45;Species</title>
<path fill="none" stroke="black" d="M189,-71.9925C189,-60.7119 189,-46.9753 189,-36.3147"/>
</g>
<!-- BirthDate -->
<g id="node5" class="node"><title>BirthDate</title>
<ellipse fill="none" stroke="black" cx="289" cy="-18" rx="44.9596" ry="18"/>
<text text-anchor="middle" x="289" y="-13.8" font-family="Times,serif" font-size="14.00">BirthDate</text>
</g>
<!-- PET&#45;&#45;BirthDate -->
<g id="edge4" class="edge"><title>PET&#45;&#45;BirthDate</title>
<path fill="none" stroke="black" d="M217.389,-71.9925C233.672,-59.9427 253.742,-45.0907 268.488,-34.1787"/>
</g>
<!-- Age -->
<g id="node6" class="node"><title>Age</title>
<ellipse fill="none" stroke="black" stroke-dasharray="1,5" cx="379" cy="-18" rx="27" ry="18"/>
<text text-anchor="middle" x="379" y="-13.8" font-family="Times,serif" font-size="14.00">Age</text>
</g>
<!-- PET&#45;&#45;Age -->
<g id="edge5" class="edge"><title>PET&#45;&#45;Age</title>
<path fill="none" stroke="black" stroke-dasharray="1,5" d="M220.28,-82.3178C251.615,-71.4081 301.08,-53.6168 343,-36 347.843,-33.9649 352.983,-31.6398 357.817,-29.3763"/>
</g>
</g>
</svg>
