<?xml version="1.0" encoding="UTF-8" standalone="no"?>
<!DOCTYPE svg PUBLIC "-//W3C//DTD SVG 1.1//EN"
 "http://www.w3.org/Graphics/SVG/1.1/DTD/svg11.dtd">
<!-- Generated by graphviz version 2.38.0 (20140413.2041)
 -->
<!-- Title: pet Pages: 1 -->
<svg width="414pt" height="116pt"
 viewBox="0.00 0.00 414.00 116.00" xmlns="http://www.w3.org/2000/svg" xmlns:xlink="http://www.w3.org/1999/xlink">
<g id="graph0" class="graph" transform="scale(1 1) rotate(0) translate(4 112)">
<title>pet</title>
<polygon fill="white" stroke="none" points="-4,4 -4,-112 410,-112 410,4 -4,4"/>
<!-- PET -->
<g id="node1" class="node"><title>PET</title>
<polygon fill="none" stroke="black" points="216,-108 162,-108 162,-72 216,-72 216,-108"/>
<text text-anchor="middle" x="189" y="-85.8" font-family="Times,serif" font-size="14.00">PET</text>
</g>
<!-- PID -->
<g id="node2" class="node"><title>PID</title>
<ellipse fill="none" stroke="black" cx="27" cy="-18" rx="27" ry="18"/>
<text text-anchor="middle" x="27" y="-13.8" font-family="Times,serif" font-size="14.00">PID</text>
</g>
<!-- PET&#45;&#45;PID -->
<g id="edge1" class="edge"><title>PET&#45;&#45;PID</title>
<path fill="none" stroke="black" d="M161.818,-77.9618C136.201,-67.4658 96.8084,-51.0847 63,-36 58.2029,-33.8596 53.0812,-31.4918 48.2504,-29.2202"/>
</g>
<!-- PetName -->
<g id="node3" class="node"><title>PetName</title>
<ellipse fill="none" stroke="black" cx="103" cy="-18" rx="31.4462" ry="18"/>
<text text-anchor="middle" x="103" y="-13.8" font-family="Times,serif" font-size="14.00">Name</text>
</g>
<!-- PET&#45;&#45;PetName -->
<g id="edge2" class="edge"><title>PET&#45;&#45;PetName</title>
<path fill="none" stroke="black" d="M167.742,-71.6966C153.118,-59.7936 133.942,-44.185 120.263,-33.0511"/>
</g>
<!-- Species -->
<g id="node4" class="node"><title>Species</title>
<ellipse fill="none" stroke="black" cx="189" cy="-18" rx="37.2421" ry="18"/>
<text text-anchor="middle" x="189" y="-13.8" font-family="Times,serif" font-size="14.00">Species</text>
</g>
<!-- PET&#45;&#45;Species -->
<g id="edge3" class="edge"><title>PET&#45;&#45;Species</title>
<path fill="none" stroke="black" d="M189,-71.6966C189,-60.8463 189,-46.9167 189,-36.1043"/>
</g>
<!-- BirthDate -->
<g id="node5" class="node"><title>BirthDate</title>
<ellipse fill="none" stroke="black" cx="289" cy="-18" rx="44.9596" ry="18"/>
<text text-anchor="middle" x="289" y="-13.8" font-family="Times,serif" font-size="14.00">BirthDate</text>
</g>
<!-- PET&#45;&#45;BirthDate -->
<g id="edge4" class="edge"><title>PET&#45;&#45;BirthDate</title>
<path fill="none" stroke="black" d="M213.463,-71.8761C230,-60.3001 251.632,-45.1579 267.506,-34.0456"/>
</g>
<!-- Age -->
<g id="node6" class="node"><title>Age</title>
<ellipse fill="none" stroke="black" stroke-dasharray="1,5" cx="379" cy="-18" rx="27" ry="18"/>
<text text-anchor="middle" x="379" y="-13.8" font-family="Times,serif" font-size="14.00">Age</text>
</g>
<!-- PET&#45;&#45;Age -->
<g id="edge5" class="edge"><title>PET&#45;&#45;Age</title>
<path fill="none" stroke="black" stroke-dasharray="1,5" d="M216.038,-80.6876C247.052,-70.9249 299.26,-53.7914 343,-36 347.866,-34.0208 353.015,-31.7184 357.851,-29.4592"/>
</g>
</g>
</svg>
