<?xml version="1.0" encoding="UTF-8" standalone="no"?>
<!DOCTYPE svg PUBLIC "-//W3C//DTD SVG 1.1//EN"
 "http://www.w3.org/Graphics/SVG/1.1/DTD/svg11.dtd">
<!-- Generated by graphviz version 2.38.0 (20140413.2041)
 -->
<!-- Title: shelter Pages: 1 -->
<svg width="354pt" height="116pt"
 viewBox="0.00 0.00 354.22 116.00" xmlns="http://www.w3.org/2000/svg" xmlns:xlink="http://www.w3.org/1999/xlink">
<g id="graph0" class="graph" transform="scale(1 1) rotate(0) translate(4 112)">
<title>shelter</title>
<polygon fill="white" stroke="none" points="-4,4 -4,-112 350.215,-112 350.215,4 -4,4"/>
<!-- SHELTER -->
<g id="node1" class="node"><title>SHELTER</title>
<polygon fill="none" stroke="black" points="201.156,-108 124.844,-108 124.844,-72 201.156,-72 201.156,-108"/>
<text text-anchor="middle" x="163" y="-85.8" font-family="Times,serif" font-size="14.00">SHELTER</text>
</g>
<!-- SID -->
<g id="node2" class="node"><title>SID</title>
<ellipse fill="none" stroke="black" cx="27" cy="-18" rx="27" ry="18"/>
<text text-anchor="start" x="15.7207" y="-14.8" font-family="Times,serif" text-decoration="underline" font-size="14.00">SID</text>
</g>
<!-- SHELTER&#45;&#45;SID -->
<g id="edge1" class="edge"><title>SHELTER&#45;&#45;SID</title>
<path fill="none" stroke="black" d="M129.731,-71.8761C104.095,-58.6811 69.4564,-40.8526 47.6728,-29.6404"/>
</g>
<!-- Address -->
<g id="node3" class="node"><title>Address</title>
<ellipse fill="none" stroke="black" cx="111" cy="-18" rx="39.18" ry="18"/>
<text text-anchor="middle" x="111" y="-13.8" font-family="Times,serif" font-size="14.00">Address</text>
</g>
<!-- SHELTER&#45;&#45;Address -->
<g id="edge2" class="edge"><title>SHELTER&#45;&#45;Address</title>
<path fill="none" stroke="black" d="M150.146,-71.6966C141.845,-60.5224 131.118,-46.0824 122.993,-35.1446"/>
</g>
<!-- DaysOpen -->
<g id="node4" class="node"><title>DaysOpen</title>
<ellipse fill="none" stroke="black" cx="216" cy="-18" rx="47.3736" ry="18"/>
<text text-anchor="middle" x="216" y="-13.8" font-family="Times,serif" font-size="14.00">DaysOpen</text>
</g>
<!-- SHELTER&#45;&#45;DaysOpen -->
<g id="edge4" class="edge"><title>SHELTER&#45;&#45;DaysOpen</title>
<path fill="none" stroke="black" d="M176.101,-71.6966C184.439,-60.6843 195.178,-46.5002 203.415,-35.6223"/>
</g>
<!-- Phone -->
<g id="node5" class="node"><title>Phone</title>
<ellipse fill="none" stroke="black" cx="314" cy="-18" rx="32.4324" ry="18"/>
<text text-anchor="middle" x="314" y="-13.8" font-family="Times,serif" font-size="14.00">Phone</text>
</g>
<!-- SHELTER&#45;&#45;Phone -->
<g id="edge3" class="edge"><title>SHELTER&#45;&#45;Phone</title>
<path fill="none" stroke="black" d="M199.939,-71.8761C227.878,-58.9239 265.449,-41.5073 289.697,-30.2661"/>
</g>
</g>
</svg>
