<?xml version="1.0" encoding="UTF-8" standalone="no"?>
<!DOCTYPE svg PUBLIC "-//W3C//DTD SVG 1.1//EN"
 "http://www.w3.org/Graphics/SVG/1.1/DTD/svg11.dtd">
<!-- Generated by graphviz version 2.38.0 (20140413.2041)
 -->
<!-- Title: shelter Pages: 1 -->
<svg width="469pt" height="196pt"
 viewBox="0.00 0.00 468.74 196.00" xmlns="http://www.w3.org/2000/svg" xmlns:xlink="http://www.w3.org/1999/xlink">
<g id="graph0" class="graph" transform="scale(1 1) rotate(0) translate(4 192)">
<title>shelter</title>
<polygon fill="white" stroke="none" points="-4,4 -4,-192 464.743,-192 464.743,4 -4,4"/>
<!-- SHELTER -->
<g id="node1" class="node"><title>SHELTER</title>
<polygon fill="none" stroke="black" points="295.242,-188 218.929,-188 218.929,-152 295.242,-152 295.242,-188"/>
<text text-anchor="middle" x="257.086" y="-165.8" font-family="Times,serif" font-size="14.00">SHELTER</text>
</g>
<!-- SID -->
<g id="node2" class="node"><title>SID</title>
<ellipse fill="none" stroke="black" cx="119.086" cy="-94" rx="27" ry="18"/>
<text text-anchor="start" x="107.806" y="-90.8" font-family="Times,serif" text-decoration="underline" font-size="14.00">SID</text>
</g>
<!-- SHELTER&#45;&#45;SID -->
<g id="edge1" class="edge"><title>SHELTER&#45;&#45;SID</title>
<path fill="none" stroke="black" d="M223.33,-151.984C203.356,-141.785 177.633,-128.424 155.086,-116 149.762,-113.067 144.056,-109.797 138.792,-106.728"/>
</g>
<!-- Address -->
<g id="node3" class="node"><title>Address</title>
<ellipse fill="none" stroke="black" cx="203.086" cy="-94" rx="39.18" ry="18"/>
<text text-anchor="middle" x="203.086" y="-89.8" font-family="Times,serif" font-size="14.00">Address</text>
</g>
<!-- SHELTER&#45;&#45;Address -->
<g id="edge2" class="edge"><title>SHELTER&#45;&#45;Address</title>
<path fill="none" stroke="black" d="M244.561,-151.837C235.65,-139.626 223.753,-123.322 214.986,-111.308"/>
</g>
<!-- DaysOpen -->
<g id="node9" class="node"><title>DaysOpen</title>
<ellipse fill="none" stroke="black" cx="312.086" cy="-94" rx="47.3786" ry="18"/>
<ellipse fill="none" stroke="black" cx="312.086" cy="-94" rx="51.3736" ry="22"/>
<text text-anchor="middle" x="312.086" y="-89.8" font-family="Times,serif" font-size="14.00">DaysOpen</text>
</g>
<!-- SHELTER&#45;&#45;DaysOpen -->
<g id="edge9" class="edge"><title>SHELTER&#45;&#45;DaysOpen</title>
<path fill="none" stroke="black" d="M269.842,-151.837C277.966,-140.907 288.527,-126.698 297.057,-115.221"/>
</g>
<!-- Phones -->
<g id="node10" class="node"><title>Phones</title>
<ellipse fill="none" stroke="black" cx="421.086" cy="-94" rx="35.7987" ry="18"/>
<ellipse fill="none" stroke="black" cx="421.086" cy="-94" rx="39.8146" ry="22"/>
<text text-anchor="middle" x="421.086" y="-89.8" font-family="Times,serif" font-size="14.00">Phones</text>
</g>
<!-- SHELTER&#45;&#45;Phones -->
<g id="edge8" class="edge"><title>SHELTER&#45;&#45;Phones</title>
<path fill="none" stroke="black" d="M295.123,-151.837C324.361,-138.644 364.188,-120.673 391.172,-108.497"/>
</g>
<!-- Number -->
<g id="node4" class="node"><title>Number</title>
<ellipse fill="none" stroke="black" cx="39.0856" cy="-18" rx="39.1713" ry="18"/>
<text text-anchor="middle" x="39.0856" y="-13.8" font-family="Times,serif" font-size="14.00">Number</text>
</g>
<!-- Address&#45;&#45;Number -->
<g id="edge3" class="edge"><title>Address&#45;&#45;Number</title>
<path fill="none" stroke="black" d="M176.004,-80.7804C145.527,-67.0283 96.3164,-44.8237 65.9345,-31.1148"/>
</g>
<!-- Street -->
<g id="node5" class="node"><title>Street</title>
<ellipse fill="none" stroke="black" cx="127.086" cy="-18" rx="30.9706" ry="18"/>
<text text-anchor="middle" x="127.086" y="-13.8" font-family="Times,serif" font-size="14.00">Street</text>
</g>
<!-- Address&#45;&#45;Street -->
<g id="edge4" class="edge"><title>Address&#45;&#45;Street</title>
<path fill="none" stroke="black" d="M186.968,-77.3065C173.809,-64.4939 155.34,-46.5104 142.402,-33.9138"/>
</g>
<!-- City -->
<g id="node6" class="node"><title>City</title>
<ellipse fill="none" stroke="black" cx="203.086" cy="-18" rx="27" ry="18"/>
<text text-anchor="middle" x="203.086" y="-13.8" font-family="Times,serif" font-size="14.00">City</text>
</g>
<!-- Address&#45;&#45;City -->
<g id="edge5" class="edge"><title>Address&#45;&#45;City</title>
<path fill="none" stroke="black" d="M203.086,-75.8369C203.086,-63.882 203.086,-48.0045 203.086,-36.07"/>
</g>
<!-- State -->
<g id="node7" class="node"><title>State</title>
<ellipse fill="none" stroke="black" cx="276.086" cy="-18" rx="27.5804" ry="18"/>
<text text-anchor="middle" x="276.086" y="-13.8" font-family="Times,serif" font-size="14.00">State</text>
</g>
<!-- Address&#45;&#45;State -->
<g id="edge6" class="edge"><title>Address&#45;&#45;State</title>
<path fill="none" stroke="black" d="M218.567,-77.3065C231.29,-64.409 249.182,-46.272 261.62,-33.6642"/>
</g>
<!-- Zip -->
<g id="node8" class="node"><title>Zip</title>
<ellipse fill="none" stroke="black" cx="349.086" cy="-18" rx="27" ry="18"/>
<text text-anchor="middle" x="349.086" y="-13.8" font-family="Times,serif" font-size="14.00">Zip</text>
</g>
<!-- Address&#45;&#45;Zip -->
<g id="edge7" class="edge"><title>Address&#45;&#45;Zip</title>
<path fill="none" stroke="black" d="M228.517,-80.1102C256.785,-65.7826 301.908,-42.9118 328.196,-29.5876"/>
</g>
</g>
</svg>
