<?xml version="1.0" encoding="UTF-8" standalone="no"?>
<!DOCTYPE svg PUBLIC "-//W3C//DTD SVG 1.1//EN"
 "http://www.w3.org/Graphics/SVG/1.1/DTD/svg11.dtd">
<!-- Generated by graphviz version 2.38.0 (20140413.2041)
 -->
<!-- Title: shelter Pages: 1 -->
<svg width="423pt" height="188pt"
 viewBox="0.00 0.00 423.22 188.00" xmlns="http://www.w3.org/2000/svg" xmlns:xlink="http://www.w3.org/1999/xlink">
<g id="graph0" class="graph" transform="scale(1 1) rotate(0) translate(4 184)">
<title>shelter</title>
<polygon fill="white" stroke="none" points="-4,4 -4,-184 419.215,-184 419.215,4 -4,4"/>
<!-- SHELTER -->
<g id="node1" class="node"><title>SHELTER</title>
<polygon fill="none" stroke="black" points="270.156,-180 193.844,-180 193.844,-144 270.156,-144 270.156,-180"/>
<text text-anchor="middle" x="232" y="-157.8" font-family="Times,serif" font-size="14.00">SHELTER</text>
</g>
<!-- SID -->
<g id="node2" class="node"><title>SID</title>
<ellipse fill="none" stroke="black" cx="96" cy="-90" rx="27" ry="18"/>
<text text-anchor="start" x="84.7207" y="-86.8" font-family="Times,serif" text-decoration="underline" font-size="14.00">SID</text>
</g>
<!-- SHELTER&#45;&#45;SID -->
<g id="edge1" class="edge"><title>SHELTER&#45;&#45;SID</title>
<path fill="none" stroke="black" d="M198.731,-143.876C173.095,-130.681 138.456,-112.853 116.673,-101.64"/>
</g>
<!-- Address -->
<g id="node3" class="node"><title>Address</title>
<ellipse fill="none" stroke="black" cx="180" cy="-90" rx="39.18" ry="18"/>
<text text-anchor="middle" x="180" y="-85.8" font-family="Times,serif" font-size="14.00">Address</text>
</g>
<!-- SHELTER&#45;&#45;Address -->
<g id="edge2" class="edge"><title>SHELTER&#45;&#45;Address</title>
<path fill="none" stroke="black" d="M219.146,-143.697C210.845,-132.522 200.118,-118.082 191.993,-107.145"/>
</g>
<!-- DaysOpen -->
<g id="node8" class="node"><title>DaysOpen</title>
<ellipse fill="none" stroke="black" cx="285" cy="-90" rx="47.3736" ry="18"/>
<text text-anchor="middle" x="285" y="-85.8" font-family="Times,serif" font-size="14.00">DaysOpen</text>
</g>
<!-- SHELTER&#45;&#45;DaysOpen -->
<g id="edge4" class="edge"><title>SHELTER&#45;&#45;DaysOpen</title>
<path fill="none" stroke="black" d="M245.101,-143.697C253.439,-132.684 264.178,-118.5 272.415,-107.622"/>
</g>
<!-- Phone -->
<g id="node9" class="node"><title>Phone</title>
<ellipse fill="none" stroke="black" cx="383" cy="-90" rx="32.4324" ry="18"/>
<text text-anchor="middle" x="383" y="-85.8" font-family="Times,serif" font-size="14.00">Phone</text>
</g>
<!-- SHELTER&#45;&#45;Phone -->
<g id="edge3" class="edge"><title>SHELTER&#45;&#45;Phone</title>
<path fill="none" stroke="black" d="M268.939,-143.876C296.878,-130.924 334.449,-113.507 358.697,-102.266"/>
</g>
<!-- City -->
<g id="node4" class="node"><title>City</title>
<ellipse fill="none" stroke="black" cx="27" cy="-18" rx="27" ry="18"/>
<text text-anchor="middle" x="27" y="-13.8" font-family="Times,serif" font-size="14.00">City</text>
</g>
<!-- Address&#45;&#45;City -->
<g id="edge7" class="edge"><title>Address&#45;&#45;City</title>
<path fill="none" stroke="black" d="M152.992,-76.9114C129.242,-66.2466 93.7633,-50.2302 63,-36 58.2324,-33.7946 53.1227,-31.4004 48.2942,-29.1238"/>
</g>
<!-- Street -->
<g id="node5" class="node"><title>Street</title>
<ellipse fill="none" stroke="black" cx="103" cy="-18" rx="30.9706" ry="18"/>
<text text-anchor="middle" x="103" y="-13.8" font-family="Times,serif" font-size="14.00">Street</text>
</g>
<!-- Address&#45;&#45;Street -->
<g id="edge6" class="edge"><title>Address&#45;&#45;Street</title>
<path fill="none" stroke="black" d="M162.911,-73.4647C149.797,-61.5423 131.822,-45.2015 118.99,-33.5359"/>
</g>
<!-- State -->
<g id="node6" class="node"><title>State</title>
<ellipse fill="none" stroke="black" cx="180" cy="-18" rx="27.5804" ry="18"/>
<text text-anchor="middle" x="180" y="-13.8" font-family="Times,serif" font-size="14.00">State</text>
</g>
<!-- Address&#45;&#45;State -->
<g id="edge8" class="edge"><title>Address&#45;&#45;State</title>
<path fill="none" stroke="black" d="M180,-71.6966C180,-60.8463 180,-46.9167 180,-36.1043"/>
</g>
<!-- Zip -->
<g id="node7" class="node"><title>Zip</title>
<ellipse fill="none" stroke="black" cx="253" cy="-18" rx="27" ry="18"/>
<text text-anchor="middle" x="253" y="-13.8" font-family="Times,serif" font-size="14.00">Zip</text>
</g>
<!-- Address&#45;&#45;Zip -->
<g id="edge9" class="edge"><title>Address&#45;&#45;Zip</title>
<path fill="none" stroke="black" d="M196.201,-73.4647C208.634,-61.5423 225.676,-45.2015 237.841,-33.5359"/>
</g>
<!-- Number -->
<g id="node10" class="node"><title>Number</title>
<ellipse fill="none" stroke="black" cx="337" cy="-18" rx="39.1713" ry="18"/>
<text text-anchor="middle" x="337" y="-13.8" font-family="Times,serif" font-size="14.00">Number</text>
</g>
<!-- Address&#45;&#45;Number -->
<g id="edge5" class="edge"><title>Address&#45;&#45;Number</title>
<path fill="none" stroke="black" d="M206.989,-76.9666C235.746,-64.1451 281.015,-43.9616 309.838,-31.1107"/>
</g>
</g>
</svg>
