<?xml version="1.0" encoding="UTF-8" standalone="no"?>
<!DOCTYPE svg PUBLIC "-//W3C//DTD SVG 1.1//EN"
 "http://www.w3.org/Graphics/SVG/1.1/DTD/svg11.dtd">
<!-- Generated by graphviz version 2.38.0 (20140413.2041)
 -->
<!-- Title: humane_society Pages: 1 -->
<svg width="945pt" height="618pt"
 viewBox="0.00 0.00 944.99 618.17" xmlns="http://www.w3.org/2000/svg" xmlns:xlink="http://www.w3.org/1999/xlink">
<g id="graph0" class="graph" transform="scale(1 1) rotate(0) translate(4 614.171)">
<title>humane_society</title>
<polygon fill="white" stroke="none" points="-4,4 -4,-614.171 940.993,-614.171 940.993,4 -4,4"/>
<!-- SHELTER -->
<g id="node1" class="node"><title>SHELTER</title>
<polygon fill="none" stroke="black" points="376.15,-297.171 299.837,-297.171 299.837,-261.171 376.15,-261.171 376.15,-297.171"/>
<text text-anchor="middle" x="337.993" y="-274.971" font-family="Times,serif" font-size="14.00">SHELTER</text>
</g>
<!-- SID -->
<g id="node2" class="node"><title>SID</title>
<ellipse fill="none" stroke="black" cx="253.993" cy="-189.086" rx="27" ry="18"/>
<text text-anchor="start" x="242.714" y="-185.886" font-family="Times,serif" text-decoration="underline" font-size="14.00">SID</text>
</g>
<!-- SHELTER&#45;&#45;SID -->
<g id="edge1" class="edge"><title>SHELTER&#45;&#45;SID</title>
<path fill="none" stroke="black" d="M321.397,-260.768C305.81,-244.423 282.746,-220.237 268.045,-204.821"/>
</g>
<!-- Address -->
<g id="node3" class="node"><title>Address</title>
<ellipse fill="none" stroke="black" cx="337.993" cy="-189.086" rx="39.18" ry="18"/>
<text text-anchor="middle" x="337.993" y="-184.886" font-family="Times,serif" font-size="14.00">Address</text>
</g>
<!-- SHELTER&#45;&#45;Address -->
<g id="edge2" class="edge"><title>SHELTER&#45;&#45;Address</title>
<path fill="none" stroke="black" d="M337.993,-260.768C337.993,-245.225 337.993,-222.592 337.993,-207.153"/>
</g>
<!-- DaysOpen -->
<g id="node9" class="node"><title>DaysOpen</title>
<ellipse fill="none" stroke="black" cx="446.993" cy="-189.086" rx="47.3786" ry="18"/>
<ellipse fill="none" stroke="black" cx="446.993" cy="-189.086" rx="51.3736" ry="22"/>
<text text-anchor="middle" x="446.993" y="-184.886" font-family="Times,serif" font-size="14.00">DaysOpen</text>
</g>
<!-- SHELTER&#45;&#45;DaysOpen -->
<g id="edge9" class="edge"><title>SHELTER&#45;&#45;DaysOpen</title>
<path fill="none" stroke="black" d="M359.268,-260.978C377.855,-245.958 404.778,-224.201 423.887,-208.758"/>
</g>
<!-- Phones -->
<g id="node10" class="node"><title>Phones</title>
<ellipse fill="none" stroke="black" cx="555.993" cy="-189.086" rx="35.7987" ry="18"/>
<ellipse fill="none" stroke="black" cx="555.993" cy="-189.086" rx="39.8146" ry="22"/>
<text text-anchor="middle" x="555.993" y="-184.886" font-family="Times,serif" font-size="14.00">Phones</text>
</g>
<!-- SHELTER&#45;&#45;Phones -->
<g id="edge8" class="edge"><title>SHELTER&#45;&#45;Phones</title>
<path fill="none" stroke="black" d="M376.379,-263.318C410.716,-249.945 462.365,-229.615 506.993,-211.171 512.984,-208.695 519.363,-205.997 525.469,-203.382"/>
</g>
<!-- HOUSED_AT -->
<g id="node29" class="node"><title>HOUSED_AT</title>
<polygon fill="none" stroke="black" points="719.993,-207.156 633.276,-189.086 719.993,-171.016 806.71,-189.086 719.993,-207.156"/>
<polygon fill="none" stroke="black" points="719.993,-211.257 613.593,-189.086 719.993,-166.914 826.393,-189.086 719.993,-211.257"/>
<text text-anchor="middle" x="719.993" y="-184.886" font-family="Times,serif" font-size="14.00">HOUSED_AT</text>
</g>
<!-- SHELTER&#45;&#45;HOUSED_AT -->
<g id="edge28" class="edge"><title>SHELTER&#45;&#45;HOUSED_AT</title>
<path fill="none" stroke="black" d="M376.37,-269.322C446.373,-253.18 594.651,-218.988 671.514,-201.264"/>
<text text-anchor="middle" x="544.493" y="-231.971" font-family="Times,serif" font-size="14.00">1</text>
</g>
<!-- Number -->
<g id="node4" class="node"><title>Number</title>
<ellipse fill="none" stroke="black" cx="173.993" cy="-95" rx="39.1713" ry="18"/>
<text text-anchor="middle" x="173.993" y="-90.8" font-family="Times,serif" font-size="14.00">Number</text>
</g>
<!-- Address&#45;&#45;Number -->
<g id="edge3" class="edge"><title>Address&#45;&#45;Number</title>
<path fill="none" stroke="black" d="M314.146,-174.696C283.053,-157.237 228.976,-126.873 197.869,-109.406"/>
</g>
<!-- Street -->
<g id="node5" class="node"><title>Street</title>
<ellipse fill="none" stroke="black" cx="261.993" cy="-95" rx="30.9706" ry="18"/>
<text text-anchor="middle" x="261.993" y="-90.8" font-family="Times,serif" font-size="14.00">Street</text>
</g>
<!-- Address&#45;&#45;Street -->
<g id="edge4" class="edge"><title>Address&#45;&#45;Street</title>
<path fill="none" stroke="black" d="M324.755,-172.045C310.721,-155.041 288.705,-128.365 274.826,-111.549"/>
</g>
<!-- City -->
<g id="node6" class="node"><title>City</title>
<ellipse fill="none" stroke="black" cx="337.993" cy="-95" rx="27" ry="18"/>
<text text-anchor="middle" x="337.993" y="-90.8" font-family="Times,serif" font-size="14.00">City</text>
</g>
<!-- Address&#45;&#45;City -->
<g id="edge5" class="edge"><title>Address&#45;&#45;City</title>
<path fill="none" stroke="black" d="M337.993,-170.765C337.993,-154.302 337.993,-129.681 337.993,-113.243"/>
</g>
<!-- State -->
<g id="node7" class="node"><title>State</title>
<ellipse fill="none" stroke="black" cx="410.993" cy="-95" rx="27.5804" ry="18"/>
<text text-anchor="middle" x="410.993" y="-90.8" font-family="Times,serif" font-size="14.00">State</text>
</g>
<!-- Address&#45;&#45;State -->
<g id="edge6" class="edge"><title>Address&#45;&#45;State</title>
<path fill="none" stroke="black" d="M350.709,-172.045C364.271,-154.938 385.592,-128.042 398.908,-111.245"/>
</g>
<!-- Zip -->
<g id="node8" class="node"><title>Zip</title>
<ellipse fill="none" stroke="black" cx="483.993" cy="-95" rx="27" ry="18"/>
<text text-anchor="middle" x="483.993" y="-90.8" font-family="Times,serif" font-size="14.00">Zip</text>
</g>
<!-- Address&#45;&#45;Zip -->
<g id="edge7" class="edge"><title>Address&#45;&#45;Zip</title>
<path fill="none" stroke="black" d="M360.167,-174.1C388.726,-156.087 437.886,-125.081 464.876,-108.058"/>
</g>
<!-- WORKER -->
<g id="node11" class="node"><title>WORKER</title>
<polygon fill="none" stroke="black" points="240.156,-537.171 163.83,-537.171 163.83,-501.171 240.156,-501.171 240.156,-537.171"/>
<text text-anchor="middle" x="201.993" y="-514.971" font-family="Times,serif" font-size="14.00">WORKER</text>
</g>
<!-- sub_worker -->
<g id="node19" class="node"><title>sub_worker</title>
<ellipse fill="none" stroke="black" cx="162.993" cy="-433.171" rx="18" ry="18"/>
<text text-anchor="middle" x="162.993" y="-428.971" font-family="Times,serif" font-size="14.00">d</text>
</g>
<!-- WORKER&#45;&#45;sub_worker -->
<g id="edge14" class="edge"><title>WORKER&#45;&#45;sub_worker</title>
<path fill="none" stroke="black" d="M192.098,-501.609C185.137,-486.615 175.179,-465.166 168.46,-450.696"/>
<path fill="none" stroke="none" d="M193.912,-500.766C186.951,-485.773 176.993,-464.324 170.274,-449.854"/>
<path fill="none" stroke="black" d="M195.726,-499.924C188.765,-484.931 178.807,-463.481 172.088,-449.012"/>
</g>
<!-- WORKS_FOR -->
<g id="node20" class="node"><title>WORKS_FOR</title>
<polygon fill="none" stroke="black" points="327.993,-451.171 237.911,-433.171 327.993,-415.171 418.075,-433.171 327.993,-451.171"/>
<text text-anchor="middle" x="327.993" y="-428.971" font-family="Times,serif" font-size="14.00">WORKS_FOR</text>
</g>
<!-- WORKER&#45;&#45;WORKS_FOR -->
<g id="edge20" class="edge"><title>WORKER&#45;&#45;WORKS_FOR</title>
<path fill="none" stroke="black" d="M226.686,-499.306C250.445,-483.466 285.201,-460.295 306.909,-445.824"/>
<path fill="none" stroke="none" d="M227.795,-500.97C251.555,-485.13 286.311,-461.959 308.018,-447.488"/>
<path fill="none" stroke="black" d="M228.905,-502.634C252.664,-486.794 287.42,-463.623 309.128,-449.152"/>
<text text-anchor="middle" x="278.048" y="-471.971" font-family="Times,serif" font-size="14.00">N</text>
</g>
<!-- SSN -->
<g id="node12" class="node"><title>SSN</title>
<ellipse fill="none" stroke="black" cx="125.993" cy="-592.171" rx="27" ry="18"/>
<text text-anchor="start" x="113.152" y="-588.971" font-family="Times,serif" text-decoration="underline" font-size="14.00">SSN</text>
</g>
<!-- SSN&#45;&#45;WORKER -->
<g id="edge10" class="edge"><title>SSN&#45;&#45;WORKER</title>
<path fill="none" stroke="black" d="M141.008,-577.144C153.294,-565.666 170.714,-549.393 183.792,-537.175"/>
</g>
<!-- Name -->
<g id="node13" class="node"><title>Name</title>
<ellipse fill="none" stroke="black" cx="201.993" cy="-592.171" rx="31.4462" ry="18"/>
<text text-anchor="middle" x="201.993" y="-587.971" font-family="Times,serif" font-size="14.00">Name</text>
</g>
<!-- Name&#45;&#45;WORKER -->
<g id="edge11" class="edge"><title>Name&#45;&#45;WORKER</title>
<path fill="none" stroke="black" d="M201.993,-573.984C201.993,-562.821 201.993,-548.331 201.993,-537.2"/>
</g>
<!-- Phone -->
<g id="node14" class="node"><title>Phone</title>
<ellipse fill="none" stroke="black" cx="282.993" cy="-592.171" rx="32.4324" ry="18"/>
<text text-anchor="middle" x="282.993" y="-587.971" font-family="Times,serif" font-size="14.00">Phone</text>
</g>
<!-- Phone&#45;&#45;WORKER -->
<g id="edge12" class="edge"><title>Phone&#45;&#45;WORKER</title>
<path fill="none" stroke="black" d="M266.21,-576.46C253.235,-565.087 235.246,-549.319 221.607,-537.364"/>
</g>
<!-- VOLUNTEER -->
<g id="node15" class="node"><title>VOLUNTEER</title>
<polygon fill="none" stroke="black" points="99.9795,-374.171 0.006835,-374.171 0.006835,-338.171 99.9795,-338.171 99.9795,-374.171"/>
<text text-anchor="middle" x="49.9932" y="-351.971" font-family="Times,serif" font-size="14.00">VOLUNTEER</text>
</g>
<!-- EMPLOYEE -->
<g id="node16" class="node"><title>EMPLOYEE</title>
<polygon fill="none" stroke="black" points="208.156,-374.171 117.83,-374.171 117.83,-338.171 208.156,-338.171 208.156,-374.171"/>
<text text-anchor="middle" x="162.993" y="-351.971" font-family="Times,serif" font-size="14.00">EMPLOYEE</text>
</g>
<!-- PayRate -->
<g id="node17" class="node"><title>PayRate</title>
<ellipse fill="none" stroke="black" cx="61.9932" cy="-279.171" rx="39.6558" ry="18"/>
<text text-anchor="middle" x="61.9932" y="-274.971" font-family="Times,serif" font-size="14.00">PayRate</text>
</g>
<!-- EMPLOYEE&#45;&#45;PayRate -->
<g id="edge13" class="edge"><title>EMPLOYEE&#45;&#45;PayRate</title>
<path fill="none" stroke="black" d="M140.075,-338.153C122.498,-325.1 98.4904,-307.273 81.7537,-294.845"/>
</g>
<!-- MANAGER -->
<g id="node18" class="node"><title>MANAGER</title>
<polygon fill="none" stroke="black" points="206.273,-297.171 119.714,-297.171 119.714,-261.171 206.273,-261.171 206.273,-297.171"/>
<text text-anchor="middle" x="162.993" y="-274.971" font-family="Times,serif" font-size="14.00">MANAGER</text>
</g>
<!-- EMPLOYEE&#45;&#45;MANAGER -->
<g id="edge17" class="edge"><title>EMPLOYEE&#45;&#45;MANAGER</title>
<path fill="none" stroke="black" d="M162.993,-328.038C162.993,-317.807 162.993,-306.46 162.993,-297.382"/>
<polygon fill="black" stroke="black" points="159.493,-328.152 162.993,-338.153 166.493,-328.153 159.493,-328.152"/>
</g>
<!-- MANAGES -->
<g id="node22" class="node"><title>MANAGES</title>
<polygon fill="none" stroke="black" points="132.993,-207.086 56.7211,-189.086 132.993,-171.086 209.265,-189.086 132.993,-207.086"/>
<text text-anchor="middle" x="132.993" y="-184.886" font-family="Times,serif" font-size="14.00">MANAGES</text>
</g>
<!-- MANAGER&#45;&#45;MANAGES -->
<g id="edge21" class="edge"><title>MANAGER&#45;&#45;MANAGES</title>
<path fill="none" stroke="black" d="M155.173,-261.413C149.743,-245.469 141.772,-222.064 136.51,-206.617"/>
<path fill="none" stroke="none" d="M157.066,-260.768C151.636,-244.824 143.665,-221.419 138.404,-205.972"/>
<path fill="none" stroke="black" d="M158.959,-260.124C153.529,-244.18 145.558,-220.775 140.297,-205.327"/>
<text text-anchor="middle" x="154.493" y="-231.971" font-family="Times,serif" font-size="14.00">1</text>
</g>
<!-- sub_worker&#45;&#45;VOLUNTEER -->
<g id="edge15" class="edge"><title>sub_worker&#45;&#45;VOLUNTEER</title>
<path fill="none" stroke="black" d="M139.776,-416.762C121.232,-404.454 95.2545,-387.212 76.0107,-374.439"/>
<polygon fill="black" stroke="black" points="137.953,-419.752 148.22,-422.366 141.824,-413.92 137.953,-419.752"/>
</g>
<!-- sub_worker&#45;&#45;EMPLOYEE -->
<g id="edge16" class="edge"><title>sub_worker&#45;&#45;EMPLOYEE</title>
<path fill="none" stroke="black" d="M162.993,-405.038C162.993,-394.807 162.993,-383.46 162.993,-374.382"/>
<polygon fill="black" stroke="black" points="159.493,-405.152 162.993,-415.153 166.493,-405.153 159.493,-405.152"/>
</g>
<!-- WORKS_FOR&#45;&#45;SHELTER -->
<g id="edge19" class="edge"><title>WORKS_FOR&#45;&#45;SHELTER</title>
<path fill="none" stroke="black" d="M327.106,-415.192C329.018,-386.13 332.917,-326.864 334.853,-297.43"/>
<path fill="none" stroke="none" d="M329.102,-415.324C331.014,-386.261 334.913,-326.995 336.849,-297.561"/>
<path fill="none" stroke="black" d="M331.097,-415.455C333.009,-386.392 336.908,-327.127 338.845,-297.692"/>
<text text-anchor="middle" x="341.217" y="-351.971" font-family="Times,serif" font-size="14.00">M</text>
</g>
<!-- days -->
<g id="node21" class="node"><title>days</title>
<ellipse fill="none" stroke="black" cx="388.993" cy="-356.171" rx="27" ry="18"/>
<ellipse fill="none" stroke="black" cx="388.993" cy="-356.171" rx="31" ry="22"/>
<text text-anchor="middle" x="388.993" y="-351.971" font-family="Times,serif" font-size="14.00">days</text>
</g>
<!-- WORKS_FOR&#45;&#45;days -->
<g id="edge18" class="edge"><title>WORKS_FOR&#45;&#45;days</title>
<path fill="none" stroke="black" d="M340.045,-417.354C349.767,-405.4 363.494,-388.522 373.939,-375.68"/>
</g>
<!-- MANAGES&#45;&#45;SHELTER -->
<g id="edge22" class="edge"><title>MANAGES&#45;&#45;SHELTER</title>
<path fill="none" stroke="black" d="M159.348,-199.233C194.885,-214.503 259.483,-242.26 300.704,-259.972"/>
<path fill="none" stroke="none" d="M158.558,-201.071C194.096,-216.34 258.693,-244.097 299.915,-261.809"/>
<path fill="none" stroke="black" d="M157.769,-202.908C193.306,-218.178 257.904,-245.935 299.125,-263.647"/>
<text text-anchor="middle" x="257.493" y="-231.971" font-family="Times,serif" font-size="14.00">1</text>
</g>
<!-- PET -->
<g id="node23" class="node"><title>PET</title>
<polygon fill="none" stroke="black" points="746.993,-113 692.993,-113 692.993,-77 746.993,-77 746.993,-113"/>
<polygon fill="none" stroke="black" points="750.993,-117 688.993,-117 688.993,-73 750.993,-73 750.993,-117"/>
<text text-anchor="middle" x="719.993" y="-90.8" font-family="Times,serif" font-size="14.00">PET</text>
</g>
<!-- PID -->
<g id="node24" class="node"><title>PID</title>
<ellipse fill="none" stroke="black" cx="557.993" cy="-18" rx="27" ry="18"/>
<text text-anchor="start" x="546.714" y="-14.8" font-family="Times,serif" text-decoration="underline" font-size="14.00">PID</text>
</g>
<!-- PET&#45;&#45;PID -->
<g id="edge23" class="edge"><title>PET&#45;&#45;PID</title>
<path fill="none" stroke="black" d="M688.886,-79.7831C663.361,-68.0929 626.295,-51.0609 593.993,-36 589.232,-33.7802 584.125,-31.3801 579.297,-29.1024"/>
</g>
<!-- PetName -->
<g id="node25" class="node"><title>PetName</title>
<ellipse fill="none" stroke="black" cx="633.993" cy="-18" rx="31.4462" ry="18"/>
<text text-anchor="middle" x="633.993" y="-13.8" font-family="Times,serif" font-size="14.00">Name</text>
</g>
<!-- PET&#45;&#45;PetName -->
<g id="edge24" class="edge"><title>PET&#45;&#45;PetName</title>
<path fill="none" stroke="black" d="M695.579,-72.7086C681.178,-60.1495 663.333,-44.587 650.565,-33.4524"/>
</g>
<!-- Species -->
<g id="node26" class="node"><title>Species</title>
<ellipse fill="none" stroke="black" cx="719.993" cy="-18" rx="37.2421" ry="18"/>
<text text-anchor="middle" x="719.993" y="-13.8" font-family="Times,serif" font-size="14.00">Species</text>
</g>
<!-- PET&#45;&#45;Species -->
<g id="edge25" class="edge"><title>PET&#45;&#45;Species</title>
<path fill="none" stroke="black" d="M719.993,-72.7086C719.993,-61.1023 719.993,-46.9309 719.993,-36.0597"/>
</g>
<!-- BirthDate -->
<g id="node27" class="node"><title>BirthDate</title>
<ellipse fill="none" stroke="black" cx="819.993" cy="-18" rx="44.9596" ry="18"/>
<text text-anchor="middle" x="819.993" y="-13.8" font-family="Times,serif" font-size="14.00">BirthDate</text>
</g>
<!-- PET&#45;&#45;BirthDate -->
<g id="edge26" class="edge"><title>PET&#45;&#45;BirthDate</title>
<path fill="none" stroke="black" d="M748.115,-72.9087C764.521,-60.604 784.842,-45.3633 799.687,-34.2296"/>
</g>
<!-- Age -->
<g id="node28" class="node"><title>Age</title>
<ellipse fill="none" stroke="black" stroke-dasharray="1,5" cx="909.993" cy="-18" rx="27" ry="18"/>
<text text-anchor="middle" x="909.993" y="-13.8" font-family="Times,serif" font-size="14.00">Age</text>
</g>
<!-- PET&#45;&#45;Age -->
<g id="edge27" class="edge"><title>PET&#45;&#45;Age</title>
<path fill="none" stroke="black" stroke-dasharray="1,5" d="M751.257,-83.0657C782.579,-71.9147 832.034,-53.7739 873.993,-36 878.83,-33.9511 883.968,-31.6204 888.802,-29.3559"/>
</g>
<!-- HOUSED_AT&#45;&#45;PET -->
<g id="edge29" class="edge"><title>HOUSED_AT&#45;&#45;PET</title>
<path fill="none" stroke="black" d="M717.993,-166.728C717.993,-151.851 717.993,-132.093 717.993,-117.242"/>
<path fill="none" stroke="none" d="M719.993,-166.728C719.993,-151.851 719.993,-132.093 719.993,-117.242"/>
<path fill="none" stroke="black" d="M721.993,-166.728C721.993,-151.851 721.993,-132.093 721.993,-117.242"/>
<text text-anchor="middle" x="725.048" y="-137.8" font-family="Times,serif" font-size="14.00">N</text>
</g>
</g>
</svg>
